<svg viewBox="0 0 300 300.621" xmlns="http://www.w3.org/2000/svg"><path d="M266.25 237.62a30.25 30.25 0 0 1-31.25 7l-29.375 29.376a4.25 4.25 0 0 1-6.125 0l-12.5-12.5a4.5 4.5 0 0 1 0-6.125l29.5-29.374a29.875 29.875 0 0 1 42.375-36.375L239 210.12l12.5 12.5 20.25-20.25a29.875 29.875 0 0 1-5.5 35.25zm8.75-137.5v72a55.875 55.875 0 0 0-31.25-9.5 57.125 57.125 0 0 0-16.125 2.376v-48.75H208.25v58.875a56.25 56.25 0 0 0-20.75 43.75 50.875 50.875 0 0 0 0 6.25H50a25 25 0 0 1-25-25v-100a25 25 0 0 1 25-25h200a25 25 0 0 1 25 25zm-137.5 87.5l-23.875-71.624H87.5L64.625 187.62h21.25l3.625-13.374h23l3.625 13.375zm59.625-48.624a20.875 20.875 0 0 0-6.875-16.875 30.375 30.375 0 0 0-20.25-5.874h-25v71.375h19.25v-23.624h5.5a34.375 34.375 0 0 0 12.5-2.125 22.75 22.75 0 0 0 8.375-5.5 20.375 20.375 0 0 0 4.5-8 29.5 29.5 0 0 0 1.75-9.374zm-91.25 7.75l-1.5-5.5-1.875-7.25c0-2.625-1-4.625-1.375-6.25a57.875 57.875 0 0 1-1.25 6c0 2.375-1 4.75-1.625 7.125s-1 4.25-1.5 5.876l-3 11.625h14.875zm69.875-12.5a7.875 7.875 0 0 0-6.25-2.125h-5v16.376h3.875a11.25 11.25 0 0 0 4.625-.875 7.375 7.375 0 0 0 3.375-2.75 9.375 9.375 0 0 0 1.375-5.25 7.125 7.125 0 0 0-2.75-5.624z"/></svg>