<?xml version="1.0" encoding="UTF-8"?>
<svg xmlns="http://www.w3.org/2000/svg" viewBox="0 0 512 512">
  <path fill="#F05032" d="M502.6,233.7L278.3,9.4c-12.9-12.9-33.7-12.9-46.6,0L186.2,54.9L240,108.7c15.3-5.1,32.9-1.7,45.1,10.5
    c12.3,12.3,15.7,30.2,10.3,45.6l51.5,51.5c15.4-5.4,33.3-2,45.6,10.3c17.2,17.2,17.2,45.1,0,62.3c-17.2,17.2-45.1,17.2-62.3,0
    c-12.9-12.9-16.1-31.9-9.6-47.8l-48-48v126.4c4.2,2.1,8.1,4.8,11.6,8.3c17.2,17.2,17.2,45.1,0,62.3c-17.2,17.2-45.1,17.2-62.3,0
    c-17.2-17.2-17.2-45.1,0-62.3c4.2-4.2,9.2-7.4,14.4-9.6V189.8c-5.2-2.1-10.1-5.3-14.4-9.6c-13-13-16.1-32.1-9.5-48.1L161.6,86.5
    L9.4,238.7c-12.9,12.9-12.9,33.7,0,46.6l224.3,224.3c12.9,12.9,33.7,12.9,46.6,0l223.4-223.4C515.5,273.3,515.5,246.5,502.6,233.7z"/>
</svg>
