<?xml version="1.0" encoding="UTF-8"?>
<svg xmlns="http://www.w3.org/2000/svg" viewBox="0 0 24 24">
  <path fill="#2563EB" d="M21,15.5A3.5,3.5,0,0,1,17.5,19h-1a.5.5,0,0,1,0-1h1a2.5,2.5,0,0,0,2.5-2.5.5.5,0,0,1,1,0ZM17.5,5h-1a.5.5,0,0,0,0,1h1A2.5,2.5,0,0,1,20,8.5a.5.5,0,0,0,1,0A3.5,3.5,0,0,0,17.5,5ZM7.5,19h-1A3.5,3.5,0,0,1,3,15.5a.5.5,0,0,1,1,0A2.5,2.5,0,0,0,6.5,18h1a.5.5,0,0,1,0,1ZM4,8.5A2.5,2.5,0,0,1,6.5,6h1a.5.5,0,0,0,0-1h-1A3.5,3.5,0,0,0,3,8.5a.5.5,0,0,0,1,0Z"/>
  <path fill="#FD8C10" d="M8,16H16a1,1,0,0,0,1-1V9a1,1,0,0,0-1-1H8A1,1,0,0,0,7,9v6A1,1,0,0,0,8,16Zm0-7h8v6H8Z"/>
  <path fill="#FD8C10" d="M6,20H18a1,1,0,0,0,1-1V5a1,1,0,0,0-1-1H6A1,1,0,0,0,5,5V19A1,1,0,0,0,6,20ZM6,5H18V19H6Z"/>
</svg>
